<svg xmlns="http://www.w3.org/2000/svg" viewBox="0 0 620 150" width="100%"><rect width="620" height="150" fill="none"/><line x1="0" y1="0" x2="0" y2="150" stroke="rgba(255,255,255,0.07)" stroke-width="1"/><line x1="20" y1="0" x2="20" y2="150" stroke="rgba(255,255,255,0.07)" stroke-width="1"/><line x1="40" y1="0" x2="40" y2="150" stroke="rgba(255,255,255,0.07)" stroke-width="1"/><line x1="60" y1="0" x2="60" y2="150" stroke="rgba(255,255,255,0.07)" stroke-width="1"/><line x1="80" y1="0" x2="80" y2="150" stroke="rgba(255,255,255,0.07)" stroke-width="1"/><line x1="100" y1="0" x2="100" y2="150" stroke="rgba(255,255,255,0.07)" stroke-width="1"/><line x1="120" y1="0" x2="120" y2="150" stroke="rgba(255,255,255,0.07)" stroke-width="1"/><line x1="140" y1="0" x2="140" y2="150" stroke="rgba(255,255,255,0.07)" stroke-width="1"/><line x1="160" y1="0" x2="160" y2="150" stroke="rgba(255,255,255,0.07)" stroke-width="1"/><line x1="180" y1="0" x2="180" y2="150" stroke="rgba(255,255,255,0.07)" stroke-width="1"/><line x1="200" y1="0" x2="200" y2="150" stroke="rgba(255,255,255,0.07)" stroke-width="1"/><line x1="220" y1="0" x2="220" y2="150" stroke="rgba(255,255,255,0.07)" stroke-width="1"/><line x1="240" y1="0" x2="240" y2="150" stroke="rgba(255,255,255,0.07)" stroke-width="1"/><line x1="260" y1="0" x2="260" y2="150" stroke="rgba(255,255,255,0.07)" stroke-width="1"/><line x1="280" y1="0" x2="280" y2="150" stroke="rgba(255,255,255,0.07)" stroke-width="1"/><line x1="300" y1="0" x2="300" y2="150" stroke="rgba(255,255,255,0.07)" stroke-width="1"/><line x1="320" y1="0" x2="320" y2="150" stroke="rgba(255,255,255,0.07)" stroke-width="1"/><line x1="340" y1="0" x2="340" y2="150" stroke="rgba(255,255,255,0.07)" stroke-width="1"/><line x1="360" y1="0" x2="360" y2="150" stroke="rgba(255,255,255,0.07)" stroke-width="1"/><line x1="380" y1="0" x2="380" y2="150" stroke="rgba(255,255,255,0.07)" stroke-width="1"/><line x1="400" y1="0" x2="400" y2="150" stroke="rgba(255,255,255,0.07)" stroke-width="1"/><line x1="420" y1="0" x2="420" y2="150" stroke="rgba(255,255,255,0.07)" stroke-width="1"/><line x1="440" y1="0" x2="440" y2="150" stroke="rgba(255,255,255,0.07)" stroke-width="1"/><line x1="460" y1="0" x2="460" y2="150" stroke="rgba(255,255,255,0.07)" stroke-width="1"/><line x1="480" y1="0" x2="480" y2="150" stroke="rgba(255,255,255,0.07)" stroke-width="1"/><line x1="500" y1="0" x2="500" y2="150" stroke="rgba(255,255,255,0.07)" stroke-width="1"/><line x1="520" y1="0" x2="520" y2="150" stroke="rgba(255,255,255,0.07)" stroke-width="1"/><line x1="540" y1="0" x2="540" y2="150" stroke="rgba(255,255,255,0.07)" stroke-width="1"/><line x1="560" y1="0" x2="560" y2="150" stroke="rgba(255,255,255,0.07)" stroke-width="1"/><line x1="580" y1="0" x2="580" y2="150" stroke="rgba(255,255,255,0.07)" stroke-width="1"/><line x1="600" y1="0" x2="600" y2="150" stroke="rgba(255,255,255,0.07)" stroke-width="1"/><line x1="620" y1="0" x2="620" y2="150" stroke="rgba(255,255,255,0.07)" stroke-width="1"/><line x1="0" y1="0" x2="620" y2="0" stroke="rgba(255,255,255,0.07)" stroke-width="1"/><line x1="0" y1="20" x2="620" y2="20" stroke="rgba(255,255,255,0.07)" stroke-width="1"/><line x1="0" y1="40" x2="620" y2="40" stroke="rgba(255,255,255,0.07)" stroke-width="1"/><line x1="0" y1="60" x2="620" y2="60" stroke="rgba(255,255,255,0.07)" stroke-width="1"/><line x1="0" y1="80" x2="620" y2="80" stroke="rgba(255,255,255,0.07)" stroke-width="1"/><line x1="0" y1="100" x2="620" y2="100" stroke="rgba(255,255,255,0.07)" stroke-width="1"/><line x1="0" y1="120" x2="620" y2="120" stroke="rgba(255,255,255,0.07)" stroke-width="1"/><line x1="0" y1="140" x2="620" y2="140" stroke="rgba(255,255,255,0.07)" stroke-width="1"/><text x="10" y="20" fill="#cbd5e1" font-family="-apple-system,Segoe UI,sans-serif" font-size="13" font-weight="600">AV-Block III° – P und QRS entkoppelt (breiter Ersatzrhythmus)</text><polyline points="20.0,95.0 25.0,86.0 30.0,95.0 62.0,95.0 67.0,86.0 72.0,95.0 104.0,95.0 109.0,86.0 114.0,95.0 146.0,95.0 151.0,86.0 156.0,95.0 188.0,95.0 193.0,86.0 198.0,95.0 230.0,95.0 235.0,86.0 240.0,95.0 272.0,95.0 277.0,86.0 282.0,95.0 314.0,95.0 319.0,86.0 324.0,95.0 356.0,95.0 361.0,86.0 366.0,95.0 398.0,95.0 403.0,86.0 408.0,95.0 440.0,95.0 445.0,86.0 450.0,95.0 482.0,95.0 487.0,86.0 492.0,95.0 524.0,95.0 529.0,86.0 534.0,95.0 566.0,95.0 571.0,86.0 576.0,95.0 608.0,95.0 613.0,86.0 618.0,95.0" fill="none" stroke="#34d399" stroke-width="2.2" stroke-linejoin="round" stroke-linecap="round"/><polyline points="35,125 35,125 41,139 51,49 63,139 155,125 155,125 155,125 161,139 171,49 183,139 275,125 275,125 275,125 281,139 291,49 303,139 395,125 395,125 395,125 401,139 411,49 423,139 515,125 515,125 515,125 521,139 531,49 543,139 635,125" fill="none" stroke="#34d399" stroke-width="2.2" opacity="0.85"/></svg>