<svg xmlns="http://www.w3.org/2000/svg" viewBox="0 0 620 150" width="100%"><rect width="620" height="150" fill="none"/><line x1="0" y1="0" x2="0" y2="150" stroke="rgba(255,255,255,0.07)" stroke-width="1"/><line x1="20" y1="0" x2="20" y2="150" stroke="rgba(255,255,255,0.07)" stroke-width="1"/><line x1="40" y1="0" x2="40" y2="150" stroke="rgba(255,255,255,0.07)" stroke-width="1"/><line x1="60" y1="0" x2="60" y2="150" stroke="rgba(255,255,255,0.07)" stroke-width="1"/><line x1="80" y1="0" x2="80" y2="150" stroke="rgba(255,255,255,0.07)" stroke-width="1"/><line x1="100" y1="0" x2="100" y2="150" stroke="rgba(255,255,255,0.07)" stroke-width="1"/><line x1="120" y1="0" x2="120" y2="150" stroke="rgba(255,255,255,0.07)" stroke-width="1"/><line x1="140" y1="0" x2="140" y2="150" stroke="rgba(255,255,255,0.07)" stroke-width="1"/><line x1="160" y1="0" x2="160" y2="150" stroke="rgba(255,255,255,0.07)" stroke-width="1"/><line x1="180" y1="0" x2="180" y2="150" stroke="rgba(255,255,255,0.07)" stroke-width="1"/><line x1="200" y1="0" x2="200" y2="150" stroke="rgba(255,255,255,0.07)" stroke-width="1"/><line x1="220" y1="0" x2="220" y2="150" stroke="rgba(255,255,255,0.07)" stroke-width="1"/><line x1="240" y1="0" x2="240" y2="150" stroke="rgba(255,255,255,0.07)" stroke-width="1"/><line x1="260" y1="0" x2="260" y2="150" stroke="rgba(255,255,255,0.07)" stroke-width="1"/><line x1="280" y1="0" x2="280" y2="150" stroke="rgba(255,255,255,0.07)" stroke-width="1"/><line x1="300" y1="0" x2="300" y2="150" stroke="rgba(255,255,255,0.07)" stroke-width="1"/><line x1="320" y1="0" x2="320" y2="150" stroke="rgba(255,255,255,0.07)" stroke-width="1"/><line x1="340" y1="0" x2="340" y2="150" stroke="rgba(255,255,255,0.07)" stroke-width="1"/><line x1="360" y1="0" x2="360" y2="150" stroke="rgba(255,255,255,0.07)" stroke-width="1"/><line x1="380" y1="0" x2="380" y2="150" stroke="rgba(255,255,255,0.07)" stroke-width="1"/><line x1="400" y1="0" x2="400" y2="150" stroke="rgba(255,255,255,0.07)" stroke-width="1"/><line x1="420" y1="0" x2="420" y2="150" stroke="rgba(255,255,255,0.07)" stroke-width="1"/><line x1="440" y1="0" x2="440" y2="150" stroke="rgba(255,255,255,0.07)" stroke-width="1"/><line x1="460" y1="0" x2="460" y2="150" stroke="rgba(255,255,255,0.07)" stroke-width="1"/><line x1="480" y1="0" x2="480" y2="150" stroke="rgba(255,255,255,0.07)" stroke-width="1"/><line x1="500" y1="0" x2="500" y2="150" stroke="rgba(255,255,255,0.07)" stroke-width="1"/><line x1="520" y1="0" x2="520" y2="150" stroke="rgba(255,255,255,0.07)" stroke-width="1"/><line x1="540" y1="0" x2="540" y2="150" stroke="rgba(255,255,255,0.07)" stroke-width="1"/><line x1="560" y1="0" x2="560" y2="150" stroke="rgba(255,255,255,0.07)" stroke-width="1"/><line x1="580" y1="0" x2="580" y2="150" stroke="rgba(255,255,255,0.07)" stroke-width="1"/><line x1="600" y1="0" x2="600" y2="150" stroke="rgba(255,255,255,0.07)" stroke-width="1"/><line x1="620" y1="0" x2="620" y2="150" stroke="rgba(255,255,255,0.07)" stroke-width="1"/><line x1="0" y1="0" x2="620" y2="0" stroke="rgba(255,255,255,0.07)" stroke-width="1"/><line x1="0" y1="20" x2="620" y2="20" stroke="rgba(255,255,255,0.07)" stroke-width="1"/><line x1="0" y1="40" x2="620" y2="40" stroke="rgba(255,255,255,0.07)" stroke-width="1"/><line x1="0" y1="60" x2="620" y2="60" stroke="rgba(255,255,255,0.07)" stroke-width="1"/><line x1="0" y1="80" x2="620" y2="80" stroke="rgba(255,255,255,0.07)" stroke-width="1"/><line x1="0" y1="100" x2="620" y2="100" stroke="rgba(255,255,255,0.07)" stroke-width="1"/><line x1="0" y1="120" x2="620" y2="120" stroke="rgba(255,255,255,0.07)" stroke-width="1"/><line x1="0" y1="140" x2="620" y2="140" stroke="rgba(255,255,255,0.07)" stroke-width="1"/><text x="10" y="20" fill="#cbd5e1" font-family="-apple-system,Segoe UI,sans-serif" font-size="13" font-weight="600">AV-Block II° (2:1) – jede 2. P-Welle ohne QRS</text><polyline points="20.0,95.0 26.0,95.0 31.0,86.0 36.0,95.0 56.0,95.0 59.0,103.0 63.0,47.0 68.0,107.0 70.0,95.0 78.0,95.0 87.0,81.0 96.0,95.0 104.0,95.0 104.0,95.0 110.0,95.0 115.0,86.0 120.0,95.0 138.0,95.0 146.0,95.0 154.0,95.0 154.0,95.0 160.0,95.0 165.0,86.0 170.0,95.0 190.0,95.0 193.0,103.0 197.0,47.0 202.0,107.0 204.0,95.0 212.0,95.0 221.0,81.0 230.0,95.0 238.0,95.0 238.0,95.0 244.0,95.0 249.0,86.0 254.0,95.0 272.0,95.0 280.0,95.0 288.0,95.0 288.0,95.0 294.0,95.0 299.0,86.0 304.0,95.0 324.0,95.0 327.0,103.0 331.0,47.0 336.0,107.0 338.0,95.0 346.0,95.0 355.0,81.0 364.0,95.0 372.0,95.0 372.0,95.0 378.0,95.0 383.0,86.0 388.0,95.0 406.0,95.0 414.0,95.0 422.0,95.0" fill="none" stroke="#34d399" stroke-width="2.2" stroke-linejoin="round" stroke-linecap="round"/></svg>